<?xml version='1.0' encoding='iso-8859-1'?>
<!DOCTYPE svg PUBLIC '-//W3C//DTD SVG 1.1//EN' 'http://www.w3.org/Graphics/SVG/1.1/DTD/svg11.dtd'>
<svg version="1.1" xmlns="http://www.w3.org/2000/svg" viewBox="0 0 297.23 297.23" xmlns:xlink="http://www.w3.org/1999/xlink" enable-background="new 0 0 297.23 297.23">
  <g>
    <path d="m149.416,61.02c14.139,0 25.642-11.503 25.642-25.642 0-14.139-11.503-25.642-25.642-25.642s-25.642,11.503-25.642,25.642c0,14.139 11.503,25.642 25.642,25.642z"/>
    <path d="m108.813,139.678h80.845c5.265,0 9.533-4.268 9.533-9.533v-35.25c0-9.758-6.271-18.41-15.544-21.448l-.043-.014-13.563-2.246c-1.154-0.355-2.388,0.256-2.803,1.395l-15.389,42.224c-0.888,2.436-4.333,2.436-5.221,0l-15.389-42.224c-0.335-0.92-1.203-1.496-2.133-1.496-0.22,0-0.445,0.033-0.667,0.101l-13.566,2.243c-9.349,3.115-15.595,11.782-15.595,21.582v35.133c0.002,5.265 4.27,9.533 9.535,9.533z"/>
    <path d="m50.188,208.836c14.139,0 25.642-11.503 25.642-25.642s-11.503-25.642-25.642-25.642c-14.139,0-25.642,11.503-25.642,25.642s11.503,25.642 25.642,25.642z"/>
    <path d="m84.368,221.262l-.043-.014-13.563-2.246c-1.154-0.355-2.388,0.256-2.803,1.395l-15.389,42.224c-0.888,2.436-4.333,2.436-5.221,0l-15.389-42.224c-0.335-0.92-1.203-1.496-2.133-1.496-0.22,0-0.445,0.033-0.667,0.101l-13.566,2.243c-9.348,3.115-15.594,11.782-15.594,21.582v35.133c0,5.265 4.268,9.533 9.533,9.533h80.845c5.265,0 9.533-4.268 9.533-9.533v-35.25c0-9.757-6.27-18.41-15.543-21.448z"/>
    <path d="m247.277,208.836c14.139,0 25.642-11.503 25.642-25.642s-11.503-25.642-25.642-25.642c-14.139,0-25.642,11.503-25.642,25.642s11.502,25.642 25.642,25.642z"/>
    <path d="m281.686,221.262l-.043-.014-13.563-2.246c-1.154-0.355-2.388,0.256-2.803,1.395l-15.389,42.224c-0.888,2.436-4.333,2.436-5.221,0l-15.389-42.224c-0.335-0.92-1.203-1.496-2.133-1.496-0.22,0-0.445,0.033-0.667,0.101l-13.566,2.243c-9.349,3.115-15.595,11.782-15.595,21.582v35.133c0,5.265 4.268,9.533 9.533,9.533h80.845c5.265,0 9.533-4.268 9.533-9.533v-35.25c0.002-9.757-6.269-18.41-15.542-21.448z"/>
    <path d="m157.872,146.894h-16.922v38.55l-39.834,39.834c3.606,4.936 5.679,10.989 5.679,17.431v0.822l42.616-42.617 40.975,40.976c0.205-6.527 2.528-12.62 6.417-17.515l-38.931-38.931v-38.55z"/>
    <path d="m155.539,71.055c-0.667-0.726-1.641-1.092-2.627-1.092h-7.353c-0.986,0-1.96,0.365-2.627,1.092-1.032,1.124-1.182,2.748-0.449,4.018l3.93,5.925-1.84,15.522 3.623,9.638c0.353,0.969 1.724,0.969 2.078,0l3.623-9.638-1.84-15.522 3.93-5.925c0.733-1.27 0.584-2.894-0.448-4.018z"/>
    <path d="m56.259,218.901c-0.667-0.726-1.641-1.092-2.627-1.092h-7.353c-0.986,0-1.96,0.365-2.627,1.092-1.032,1.124-1.182,2.748-0.449,4.018l3.93,5.925-1.84,15.521 3.623,9.638c0.353,0.969 1.724,0.969 2.077,0l3.623-9.638-1.84-15.521 3.93-5.925c0.734-1.269 0.585-2.893-0.447-4.018z"/>
    <path d="m253.577,218.901c-0.667-0.726-1.641-1.092-2.627-1.092h-7.353c-0.986,0-1.96,0.365-2.627,1.092-1.032,1.124-1.182,2.748-0.449,4.018l3.93,5.925-1.84,15.521 3.623,9.638c0.353,0.969 1.724,0.969 2.077,0l3.623-9.638-1.84-15.521 3.93-5.925c0.735-1.269 0.585-2.893-0.447-4.018z"/>
  </g>
</svg>
